# xmcd
#
# Track frame offsets:
#	150
#	14806
#	27770
#	40344
#	61162
#	76088
#	86433
#	100971
#	116165
#	130687
#	148550
#	162046
#	178957
#	193451
#	210319
#	228358
#	239063
#	251467
#	264407
#	283502
#	302050
#	316157
#
# Disc length: 4469 seconds
#
# Revision: 1
# Processed by: cddbd v1.5.2PL0 Copyright (c) Steve Scherf et al.
# Submitted via: dBpowerAMP V4.0
#
DISCID=30117316
DTITLE=עדנה לב - האוסף
DYEAR=1900
DGENRE=
TTITLE0=אם תשוב
TTITLE1=בלעדיו
TTITLE2=פרחי אהבה עצובה
TTITLE3=את ואני נולדנו בתשח
TTITLE4=הדגל שלי
TTITLE5=הכומתה האדומה
TTITLE6=יותר
TTITLE7=ספר לי כוכב
TTITLE8=ידיד נפש
TTITLE9=יש עוד
TTITLE10=מתנה משמיים
TTITLE11=ברברה
TTITLE12=שתי אחיות
TTITLE13=נמו שובר גלים
TTITLE14=אל קו ההתחלה
TTITLE15=רגי לפני
TTITLE16=אהובת המטדור
TTITLE17=עוד פעם אחת
TTITLE18=קרן שמש
TTITLE19=מודה אני
TTITLE20=לחם
TTITLE21=עייפה
EXTD=
EXTT0=
EXTT1=
EXTT2=
EXTT3=
EXTT4=
EXTT5=
EXTT6=
EXTT7=
EXTT8=
EXTT9=
EXTT10=
EXTT11=
EXTT12=
EXTT13=
EXTT14=
EXTT15=
EXTT16=
EXTT17=
EXTT18=
EXTT19=
EXTT20=
EXTT21=
PLAYORDER=
